<?xml version="1.0" encoding="utf-8"?>
<!-- Generator: Adobe Illustrator 19.0.0, SVG Export Plug-In . SVG Version: 6.00 Build 0)  -->
<svg version="1.1" id="Layer_1" xmlns="http://www.w3.org/2000/svg" xmlns:xlink="http://www.w3.org/1999/xlink" x="0px" y="0px"
	 viewBox="0 0 305 160" style="enable-background:new 0 0 305 160;" xml:space="preserve">
<style type="text/css">
	.st0{fill:#F2F2F2;}
</style>
<g id="XMLID_561_">
	<g id="XMLID_575_">
		<path id="XMLID_576_" class="st0" d="M302.8,4.4H2.2C1,4.4,0,3.5,0,2.2S1,0,2.2,0h300.6c1.2,0,2.2,1,2.2,2.2S304,4.4,302.8,4.4z"
			/>
	</g>
	<g id="XMLID_573_">
		<path id="XMLID_574_" class="st0" d="M302.8,66.6H2.2c-1.2,0-2.2-1-2.2-2.2s1-2.2,2.2-2.2h300.6c1.2,0,2.2,1,2.2,2.2
			S304,66.6,302.8,66.6z"/>
	</g>
	<g id="XMLID_571_">
		<path id="XMLID_572_" class="st0" d="M302.8,35.5H2.2c-1.2,0-2.2-1-2.2-2.2s1-2.2,2.2-2.2h300.6c1.2,0,2.2,1,2.2,2.2
			S304,35.5,302.8,35.5z"/>
	</g>
	<g id="XMLID_568_">
		<g id="XMLID_569_">
			<path id="XMLID_570_" class="st0" d="M302.8,97.7H2.2c-1.2,0-2.2-1-2.2-2.2c0-1.2,1-2.2,2.2-2.2h300.6c1.2,0,2.2,1,2.2,2.2
				C305,96.7,304,97.7,302.8,97.7z"/>
		</g>
	</g>
	<g id="XMLID_565_">
		<g id="XMLID_566_">
			<path id="XMLID_567_" class="st0" d="M302.8,128.7H2.2c-1.2,0-2.2-1-2.2-2.2c0-1.2,1-2.2,2.2-2.2h300.6c1.2,0,2.2,1,2.2,2.2
				C305,127.7,304,128.7,302.8,128.7z"/>
		</g>
	</g>
	<g id="XMLID_562_">
		<g id="XMLID_563_">
			<path id="XMLID_564_" class="st0" d="M302.8,160H2.2C1,160,0,159,0,157.8c0-1.2,1-2.2,2.2-2.2h300.6c1.2,0,2.2,1,2.2,2.2
				C305,159,304,160,302.8,160z"/>
		</g>
	</g>
</g>
</svg>
