<?xml version="1.0" encoding="utf-8"?>
<!-- Generator: Adobe Illustrator 19.0.0, SVG Export Plug-In . SVG Version: 6.00 Build 0)  -->
<svg version="1.1" id="Layer_1" xmlns="http://www.w3.org/2000/svg" xmlns:xlink="http://www.w3.org/1999/xlink" x="0px" y="0px"
	 viewBox="0 0 295 80" style="enable-background:new 0 0 295 80;" xml:space="preserve">
<style type="text/css">
	.st0{fill:#F2F2F2;}
	.st1{fill:#EA4D36;}
</style>
<g id="XMLID_1_">
	<g id="XMLID_613_">
		<path id="XMLID_614_" class="st0" d="M285.4,11.7H9.6c-1.2,0-2.2-1-2.2-2.2s1-2.2,2.2-2.2h275.7c1.2,0,2.2,1,2.2,2.2
			S286.6,11.7,285.4,11.7z"/>
	</g>
	<g id="XMLID_611_">
		<path id="XMLID_612_" class="st0" d="M285.4,72.7H9.6c-1.2,0-2.2-1-2.2-2.2c0-1.2,1-2.2,2.2-2.2h275.7c1.2,0,2.2,1,2.2,2.2
			C287.6,71.7,286.6,72.7,285.4,72.7z"/>
	</g>
	<g id="XMLID_609_">
		<path id="XMLID_610_" class="st0" d="M285.4,42.2H9.6c-1.2,0-2.2-1-2.2-2.2s1-2.2,2.2-2.2h275.7c1.2,0,2.2,1,2.2,2.2
			S286.6,42.2,285.4,42.2z"/>
	</g>
	<g id="XMLID_583_">
		<path id="XMLID_590_" class="st1" d="M240.3,18.7c11.5,0,20.9,9.4,20.9,20.9s-9.4,20.9-20.9,20.9s-20.9-9.4-20.9-20.9
			S228.8,18.7,240.3,18.7 M240.3,11.1c-15.7,0-28.5,12.8-28.5,28.5s12.8,28.5,28.5,28.5c15.7,0,28.5-12.8,28.5-28.5
			S256.1,11.1,240.3,11.1L240.3,11.1z M240.3,33.6c-3.3,0-6,2.7-6,6c0,3.3,2.7,6,6,6s6-2.7,6-6C246.3,36.3,243.6,33.6,240.3,33.6z"
			/>
		<g id="XMLID_588_">
			<path id="XMLID_589_" class="st1" d="M199.5,68.2c-2.1,0-3.8-1.7-3.8-3.8v-40l-17.5,16.8c-1.4,1.4-3.9,1.4-5.4,0l-17.5-16.8v40
				c0,2.1-1.7,3.8-3.8,3.8s-3.8-1.7-3.8-3.8V15.2c0-1.5,0.9-2.9,2.3-3.5c1.4-0.6,3-0.3,4.1,0.8l21.2,20.6l21.2-20.6
				c1.1-1.1,2.7-1.4,4.1-0.8c1.4,0.6,2.3,2,2.3,3.5v49.2C203.3,66.5,201.6,68.2,199.5,68.2z"/>
		</g>
		<g id="XMLID_586_">
			<path id="XMLID_587_" class="st1" d="M79.5,68.3c-2.1,0-3.8-1.7-3.8-3.8V15.2c0-2.1,1.7-3.8,3.8-3.8s3.8,1.7,3.8,3.8v49.3
				C83.3,66.6,81.6,68.3,79.5,68.3z"/>
		</g>
		<path id="XMLID_585_" class="st1" d="M135.6,11.7h-40c-2.1,0-3.8,1.7-3.8,3.8s1.7,3.8,3.8,3.8h16.2v45.2c0,2.1,1.7,3.8,3.8,3.8
			c2.1,0,3.8-1.7,3.8-3.8V19.3h16.2c2.1,0,3.8-1.7,3.8-3.8S137.7,11.7,135.6,11.7z"/>
		<path id="XMLID_584_" class="st1" d="M55.5,44.3C62.3,42,67.2,36,67.2,28.4c0-9.4-7.7-16.7-17.5-16.7H30c-2.1,0-3.8,1.7-3.8,3.8
			s1.7,3.8,3.8,3.8h19.8c5.6,0,9.9,3.9,9.9,9.1c0,5.5-4.4,9.3-9.9,9.3h-16v-7.2c0-2.1-1.7-3.8-3.8-3.8s-3.8,1.7-3.8,3.8v10.9v6.8
			v16.1c0,2.1,1.7,3.8,3.8,3.8s3.8-1.7,3.8-3.8V48.4v-3h13.4l13,21.2c0.7,1.1,1.9,1.8,3.2,1.8c0.7,0,1.4-0.2,2-0.6
			c1.8-1.1,2.3-3.5,1.2-5.2L55.5,44.3z"/>
	</g>
</g>
</svg>
