<?xml version="1.0" encoding="utf-8"?>
<!-- Generator: Adobe Illustrator 19.0.0, SVG Export Plug-In . SVG Version: 6.00 Build 0)  -->
<svg version="1.1" id="Layer_1" xmlns="http://www.w3.org/2000/svg" xmlns:xlink="http://www.w3.org/1999/xlink" x="0px" y="0px"
	 viewBox="0 0 56.3 57.8" style="enable-background:new 0 0 56.3 57.8;" xml:space="preserve">
<style type="text/css">
	.st0{fill:#EA4D36;}
</style>
<g id="XMLID_40_">
	<g id="XMLID_551_">
		<path id="XMLID_552_" class="st0" d="M52.5,57.8c-2.1,0-3.9-1.7-3.9-3.9V13.2L30.9,30.3c-1.4,1.4-4,1.4-5.4,0L7.7,13.2v40.8
			c0,2.1-1.7,3.9-3.9,3.9S0,56.1,0,53.9V3.9c0-1.6,0.9-3,2.4-3.6C3.8-0.3,5.5,0,6.6,1.1l21.6,20.9L49.8,1.1C50.9,0,52.5-0.3,54,0.3
			c1.4,0.6,2.4,2,2.4,3.6v50.1C56.3,56.1,54.6,57.8,52.5,57.8z"/>
	</g>
</g>
</svg>
