<?xml version="1.0" encoding="utf-8"?>
<!-- Generator: Adobe Illustrator 19.0.0, SVG Export Plug-In . SVG Version: 6.00 Build 0)  -->
<svg version="1.1" id="Layer_1" xmlns="http://www.w3.org/2000/svg" xmlns:xlink="http://www.w3.org/1999/xlink" x="0px" y="0px"
	 viewBox="0 0 57.9 58" style="enable-background:new 0 0 57.9 58;" xml:space="preserve">
<style type="text/css">
	.st0{fill:#EA4D36;}
</style>
<g id="XMLID_40_">
	<path id="XMLID_553_" class="st0" d="M28.9,7.7c11.7,0,21.2,9.5,21.2,21.3s-9.5,21.3-21.2,21.3S7.7,40.7,7.7,29S17.2,7.7,28.9,7.7
		 M28.9,0C13,0,0,13,0,29s13,29,28.9,29c16,0,28.9-13,28.9-29S44.9,0,28.9,0L28.9,0z M28.9,22.9c-3.4,0-6.1,2.7-6.1,6.1
		s2.7,6.1,6.1,6.1S35,32.4,35,29S32.3,22.9,28.9,22.9z"/>
</g>
</svg>
