<?xml version="1.0" encoding="utf-8"?>
<!-- Generator: Adobe Illustrator 19.0.0, SVG Export Plug-In . SVG Version: 6.00 Build 0)  -->
<svg version="1.1" id="Layer_1" xmlns="http://www.w3.org/2000/svg" xmlns:xlink="http://www.w3.org/1999/xlink" x="0px" y="0px"
	 viewBox="0 0 41.7 57.6" style="enable-background:new 0 0 41.7 57.6;" xml:space="preserve">
<style type="text/css">
	.st0{fill:#EA4D36;}
</style>
<g id="XMLID_40_">
	<path id="XMLID_547_" class="st0" d="M29.8,33.2c6.9-2.4,11.9-8.5,11.9-16.2c0-9.5-7.8-17-17.8-17H3.9C1.7,0,0,1.7,0,3.9
		s1.7,3.9,3.9,3.9h20.1c5.7,0,10.1,4,10.1,9.3c0,5.6-4.5,9.5-10.1,9.5H7.7v-7.3c0-2.1-1.7-3.9-3.9-3.9S0,17.1,0,19.3v11.1v6.9v16.4
		c0,2.1,1.7,3.9,3.9,3.9s3.9-1.7,3.9-3.9V37.3v-3.1h13.6l13.3,21.5c0.7,1.2,2,1.8,3.3,1.8c0.7,0,1.4-0.2,2.1-0.6
		c1.8-1.1,2.3-3.5,1.2-5.3L29.8,33.2z"/>
</g>
</svg>
