<?xml version="1.0" encoding="utf-8"?>
<!-- Generator: Adobe Illustrator 19.0.0, SVG Export Plug-In . SVG Version: 6.00 Build 0)  -->
<svg version="1.1" id="Layer_1" xmlns="http://www.w3.org/2000/svg" xmlns:xlink="http://www.w3.org/1999/xlink" x="0px" y="0px"
	 viewBox="0 0 304.8 19.5" style="enable-background:new 0 0 304.8 19.5;" xml:space="preserve">
<g id="XMLID_40_">
	<path id="XMLID_543_" d="M12.3,14.3H4.4l-1.8,5H0l7.2-19h2.2l7.2,19h-2.6L12.3,14.3z M5.1,12.2h6.4L8.3,3.3L5.1,12.2z"/>
	<path id="XMLID_541_" d="M38,15.9l5.4-15.7h2.7l-7,19H37l-7-19h2.7L38,15.9z"/>
	<path id="XMLID_539_" d="M62.4,10.5h-8.2v6.7h9.5v2h-12v-19h11.9v2h-9.4v6.1h8.2V10.5z"/>
	<path id="XMLID_536_" d="M76.8,11.6h-4.4v7.7h-2.5v-19h6.3c2.1,0,3.8,0.5,4.9,1.5c1.1,1,1.7,2.4,1.7,4.2c0,1.2-0.3,2.2-1,3.1
		c-0.6,0.9-1.5,1.5-2.7,2l4.4,8.1v0.2h-2.7L76.8,11.6z M72.3,9.5h3.8c1.2,0,2.2-0.3,3-1C79.9,7.9,80.2,7,80.2,6c0-1.2-0.3-2.1-1-2.7
		c-0.7-0.6-1.7-0.9-3-1h-3.8V9.5z"/>
	<path id="XMLID_534_" d="M101.3,2.3h-6.1v16.9h-2.5V2.3h-6.1v-2h14.6V2.3z"/>
	<path id="XMLID_532_" d="M109.7,19.2h-2.5v-19h2.5V19.2z"/>
	<path id="XMLID_530_" d="M131.2,13.2c-0.2,2-1,3.6-2.2,4.6c-1.2,1.1-2.9,1.6-5,1.6c-2.2,0-4-0.8-5.4-2.4c-1.3-1.6-2-3.8-2-6.5V8.8
		c0-1.8,0.3-3.3,0.9-4.7s1.5-2.4,2.7-3.1s2.5-1.1,4-1.1c2,0,3.6,0.6,4.8,1.7c1.2,1.1,1.9,2.7,2.1,4.7h-2.5c-0.2-1.5-0.7-2.6-1.4-3.3
		s-1.7-1-3-1c-1.6,0-2.8,0.6-3.8,1.8c-0.9,1.2-1.4,2.9-1.4,5v1.8c0,2.1,0.4,3.7,1.3,4.9c0.9,1.2,2.1,1.8,3.6,1.8
		c1.4,0,2.5-0.3,3.2-0.9c0.7-0.6,1.2-1.7,1.5-3.3H131.2z"/>
	<path id="XMLID_527_" d="M148.1,14.3h-7.9l-1.8,5h-2.6l7.2-19h2.2l7.2,19h-2.6L148.1,14.3z M140.9,12.2h6.4l-3.2-8.9L140.9,12.2z"
		/>
	<path id="XMLID_525_" d="M160.5,17.2h9v2H158v-19h2.5V17.2z"/>
	<path id="XMLID_522_" d="M191.8,11.6h-4.4v7.7h-2.5v-19h6.3c2.1,0,3.8,0.5,4.9,1.5s1.7,2.4,1.7,4.2c0,1.2-0.3,2.2-1,3.1
		c-0.6,0.9-1.5,1.5-2.7,2l4.4,8.1v0.2h-2.7L191.8,11.6z M187.4,9.5h3.8c1.2,0,2.2-0.3,3-1c0.7-0.6,1.1-1.5,1.1-2.6
		c0-1.2-0.3-2.1-1-2.7c-0.7-0.6-1.7-0.9-3-1h-3.8V9.5z"/>
	<path id="XMLID_520_" d="M218.8,19.2h-2.5v-8.8h-9.5v8.8h-2.5v-19h2.5v8.2h9.5V0.3h2.5V19.2z"/>
	<path id="XMLID_518_" d="M231.6,9.8l4.9-9.5h2.8l-6.5,11.9v7.1h-2.5v-7.1l-6.5-11.9h2.9L231.6,9.8z"/>
	<path id="XMLID_516_" d="M258.2,2.3h-6.1v16.9h-2.5V2.3h-6.1v-2h14.6V2.3z"/>
	<path id="XMLID_514_" d="M278.5,19.2H276v-8.8h-9.5v8.8H264v-19h2.5v8.2h9.5V0.3h2.5V19.2z"/>
	<path id="XMLID_512_" d="M289.2,0.3l6.2,15.5l6.2-15.5h3.2v19h-2.5v-7.4l0.2-8l-6.2,15.4h-1.9l-6.2-15.3l0.2,7.9v7.4h-2.5v-19
		H289.2z"/>
</g>
</svg>
