<?xml version="1.0" encoding="utf-8"?>
<!-- Generator: Adobe Illustrator 19.0.0, SVG Export Plug-In . SVG Version: 6.00 Build 0)  -->
<svg version="1.1" id="Layer_1" xmlns="http://www.w3.org/2000/svg" xmlns:xlink="http://www.w3.org/1999/xlink" x="0px" y="0px"
	 viewBox="0 0 213.6 19.5" style="enable-background:new 0 0 213.6 19.5;" xml:space="preserve">
<g id="XMLID_40_">
	<path id="XMLID_510_" d="M6.7,10.8C4.6,10.2,3,9.4,2.1,8.5s-1.5-2-1.5-3.3c0-1.5,0.6-2.7,1.8-3.7S5.1,0,7,0c1.3,0,2.5,0.3,3.5,0.8
		s1.8,1.2,2.4,2.1c0.6,0.9,0.8,1.9,0.8,2.9h-2.5c0-1.2-0.4-2.1-1.1-2.7C9.4,2.4,8.4,2,7,2C5.8,2,4.8,2.3,4.2,2.9
		c-0.7,0.5-1,1.3-1,2.3c0,0.8,0.3,1.4,1,2s1.8,1,3.3,1.5C9,9,10.3,9.5,11.1,10s1.5,1.2,2,1.9c0.4,0.7,0.6,1.6,0.6,2.5
		c0,1.5-0.6,2.8-1.8,3.7s-2.8,1.4-4.8,1.4c-1.3,0-2.5-0.2-3.6-0.7c-1.1-0.5-2-1.2-2.6-2.1c-0.6-0.9-0.9-1.9-0.9-3h2.5
		c0,1.1,0.4,2.1,1.3,2.7c0.8,0.7,2,1,3.4,1c1.3,0,2.3-0.3,3-0.8s1.1-1.3,1.1-2.2c0-0.9-0.3-1.6-1-2.2C9.6,11.8,8.4,11.3,6.7,10.8z"
		/>
	<path id="XMLID_507_" d="M30.4,14.3h-7.9l-1.8,5h-2.6l7.2-19h2.2l7.2,19h-2.6L30.4,14.3z M23.2,12.2h6.4l-3.2-8.9L23.2,12.2z"/>
	<path id="XMLID_505_" d="M45.9,10.8c-2.1-0.6-3.7-1.4-4.7-2.3c-1-0.9-1.5-2-1.5-3.3c0-1.5,0.6-2.7,1.8-3.7c1.2-1,2.7-1.5,4.7-1.5
		c1.3,0,2.5,0.3,3.5,0.8S51.5,2,52,2.8c0.6,0.9,0.8,1.9,0.8,2.9h-2.5c0-1.2-0.4-2.1-1.1-2.7c-0.7-0.7-1.8-1-3.1-1
		C45,2,44,2.3,43.3,2.9c-0.7,0.5-1,1.3-1,2.3c0,0.8,0.3,1.4,1,2c0.7,0.5,1.8,1,3.3,1.5c1.6,0.4,2.8,0.9,3.7,1.5
		c0.9,0.5,1.5,1.2,2,1.9c0.4,0.7,0.6,1.6,0.6,2.5c0,1.5-0.6,2.8-1.8,3.7c-1.2,0.9-2.8,1.4-4.8,1.4c-1.3,0-2.5-0.2-3.6-0.7
		c-1.1-0.5-2-1.2-2.6-2.1c-0.6-0.9-0.9-1.9-0.9-3h2.5c0,1.1,0.4,2.1,1.3,2.7c0.8,0.7,2,1,3.4,1c1.3,0,2.3-0.3,3-0.8s1.1-1.3,1.1-2.2
		c0-0.9-0.3-1.6-1-2.2C48.8,11.8,47.6,11.3,45.9,10.8z"/>
	<path id="XMLID_503_" d="M64.7,10.8C62.5,10.2,61,9.4,60,8.5c-1-0.9-1.5-2-1.5-3.3c0-1.5,0.6-2.7,1.8-3.7S63.1,0,65,0
		c1.3,0,2.5,0.3,3.5,0.8s1.8,1.2,2.4,2.1s0.8,1.9,0.8,2.9h-2.5c0-1.2-0.4-2.1-1.1-2.7c-0.7-0.7-1.8-1-3.1-1c-1.2,0-2.2,0.3-2.9,0.8
		c-0.7,0.5-1,1.3-1,2.3c0,0.8,0.3,1.4,1,2c0.7,0.5,1.8,1,3.3,1.5C67,9,68.2,9.5,69.1,10s1.5,1.2,2,1.9c0.4,0.7,0.6,1.6,0.6,2.5
		c0,1.5-0.6,2.8-1.8,3.7c-1.2,0.9-2.8,1.4-4.8,1.4c-1.3,0-2.5-0.2-3.6-0.7c-1.1-0.5-2-1.2-2.6-2.1c-0.6-0.9-0.9-1.9-0.9-3h2.5
		c0,1.1,0.4,2.1,1.3,2.7c0.8,0.7,2,1,3.4,1c1.3,0,2.3-0.3,3-0.8c0.7-0.5,1.1-1.3,1.1-2.2c0-0.9-0.3-1.6-1-2.2
		C67.6,11.8,66.4,11.3,64.7,10.8z"/>
	<path id="XMLID_501_" d="M100,2.3h-6.1v16.9h-2.5V2.3h-6.1v-2H100V2.3z"/>
	<path id="XMLID_498_" d="M120,10.4c0,1.9-0.3,3.5-0.9,4.9c-0.6,1.4-1.5,2.4-2.7,3.2c-1.1,0.7-2.5,1.1-4,1.1c-1.5,0-2.8-0.4-4-1.1
		s-2-1.8-2.7-3.1c-0.6-1.4-1-2.9-1-4.7V9.2c0-1.8,0.3-3.4,0.9-4.8c0.6-1.4,1.5-2.5,2.7-3.2s2.5-1.1,4-1.1c1.5,0,2.9,0.4,4,1.1
		c1.2,0.7,2,1.8,2.7,3.2c0.6,1.4,0.9,3,0.9,4.9V10.4z M117.5,9.1c0-2.3-0.5-4-1.4-5.2c-0.9-1.2-2.2-1.8-3.8-1.8
		c-1.6,0-2.8,0.6-3.7,1.8c-0.9,1.2-1.4,2.9-1.4,5v1.4c0,2.2,0.5,3.9,1.4,5.1c0.9,1.2,2.2,1.9,3.8,1.9c1.6,0,2.9-0.6,3.7-1.8
		s1.3-2.9,1.4-5.1V9.1z"/>
	<path id="XMLID_495_" d="M141.3,10.4c0,1.9-0.3,3.5-0.9,4.9s-1.5,2.4-2.7,3.2c-1.1,0.7-2.5,1.1-4,1.1c-1.5,0-2.8-0.4-4-1.1
		s-2-1.8-2.7-3.1c-0.6-1.4-1-2.9-1-4.7V9.2c0-1.8,0.3-3.4,0.9-4.8s1.5-2.5,2.7-3.2c1.2-0.7,2.5-1.1,4-1.1c1.5,0,2.9,0.4,4,1.1
		s2,1.8,2.7,3.2s0.9,3,0.9,4.9V10.4z M138.8,9.1c0-2.3-0.5-4-1.4-5.2c-0.9-1.2-2.2-1.8-3.8-1.8c-1.6,0-2.8,0.6-3.7,1.8
		s-1.4,2.9-1.4,5v1.4c0,2.2,0.5,3.9,1.4,5.1s2.2,1.9,3.8,1.9c1.6,0,2.9-0.6,3.7-1.8s1.3-2.9,1.4-5.1V9.1z"/>
	<path id="XMLID_192_" d="M150.6,17.2h9v2h-11.5v-19h2.5V17.2z"/>
	<path id="XMLID_190_" d="M170.2,10.4l-2.3,2.4v6.4h-2.5v-19h2.5v9.4l8.4-9.4h3l-7.5,8.4l8,10.6h-3L170.2,10.4z"/>
	<path id="XMLID_188_" d="M187.7,19.2h-2.5v-19h2.5V19.2z"/>
	<path id="XMLID_186_" d="M208,2.3h-6.1v16.9h-2.5V2.3h-6.1v-2H208V2.3z"/>
	<path id="XMLID_184_" d="M210.6,18c0-0.4,0.1-0.8,0.4-1c0.2-0.3,0.6-0.4,1.1-0.4s0.9,0.1,1.1,0.4c0.3,0.3,0.4,0.6,0.4,1
		c0,0.4-0.1,0.7-0.4,1c-0.3,0.3-0.6,0.4-1.1,0.4s-0.9-0.1-1.1-0.4C210.8,18.7,210.6,18.4,210.6,18z"/>
</g>
</svg>
